<?xml version="1.0" encoding="utf-8"?>
<svg x="0pt" y="0pt" width="800pt" height="800pt" viewBox="0 0 800 800" xmlns="http://www.w3.org/2000/svg" xmlns:xlink="http://www.w3.org/1999/xlink">
  <defs>
    <title>Path</title>
    <g id="1">
      <defs>
        <path id="2" d="M0,0 C0,0,800,0,800,0 C800,0,800,800,800,800 C800,800,0,800,0,800 C0,800,0,0,0,0 z"/>
      </defs>
      <use xlink:href="#2" style="fill:#ff931e;fill-opacity:1;fill-rule:evenodd;opacity:1;stroke:none;"/>
    </g>
  </defs>
  <use xlink:href="#1"/>
  <defs>
    <title>Shape 3</title>
    <g id="3">
      <defs>
        <path id="4" d="M451.53,454.915 C492.202,408.735,572.107,460.533,610.047,427.393 C608.791,391.422,648.298,322.913,648.298,322.913 C556.93,357.834,536.173,322.354,459.893,362.564 C476.842,171.121,522.361,197.852,624.568,205.238 C629.245,173.444,684.176,45.9535,684.176,45.9535 C466.139,45.2569,331.464,148.635,330.797,375.739 C67.5055,440.268,58.7122,753.31,235.656,754.048 C369.039,754.604,438.729,657.961,451.53,454.915 z"/>
      </defs>
      <use xlink:href="#4" style="fill:#540d00;fill-opacity:1;fill-rule:evenodd;opacity:1;stroke:none;"/>
    </g>
  </defs>
  <use xlink:href="#3"/>
  <defs>
    <title>Shape 3</title>
    <g id="5">
      <defs>
        <path id="6" d="M330.003,455.289 C324.94,502.82,345.406,560.856,283.896,654.174 C266.197,681.026,230.441,699.725,207.111,698.889 C185.085,698.1,150.946,671.369,157.408,606.529 C170.743,472.718,279.409,467.781,330.003,455.289 z"/>
      </defs>
      <use xlink:href="#6" style="fill:#ff931e;fill-opacity:1;fill-rule:nonzero;opacity:1;stroke:none;"/>
    </g>
  </defs>
  <use xlink:href="#5"/>
</svg>
